<mxfile host="app.diagrams.net" modified="2021-10-10T20:26:11.705Z" agent="5.0 (Macintosh; Intel Mac OS X 10_15_7) AppleWebKit/537.36 (KHTML, like Gecko) Chrome/94.0.4606.71 Safari/537.36" etag="kgdPzfQ7XpkxuWfa-sAl" version="15.5.0" type="github">
  <diagram id="tUNZs46H01G37M870Est" name="Page-1">
    <mxGraphModel dx="1426" dy="727" grid="1" gridSize="10" guides="1" tooltips="1" connect="1" arrows="1" fold="1" page="1" pageScale="1" pageWidth="827" pageHeight="1169" math="0" shadow="0">
      <root>
        <mxCell id="0" />
        <mxCell id="1" parent="0" />
        <mxCell id="LIulJuEhoRuPIGJCdWyn-8" value="comics.py" style="shape=umlFrame;whiteSpace=wrap;html=1;width=90;height=30;" vertex="1" parent="1">
          <mxGeometry x="10" y="10" width="560" height="440" as="geometry" />
        </mxCell>
        <mxCell id="LIulJuEhoRuPIGJCdWyn-1" value="handler" style="swimlane;fontStyle=1;align=center;verticalAlign=top;childLayout=stackLayout;horizontal=1;startSize=26;horizontalStack=0;resizeParent=1;resizeParentMax=0;resizeLast=0;collapsible=1;marginBottom=0;" vertex="1" parent="1">
          <mxGeometry x="20" y="50" width="180" height="116" as="geometry" />
        </mxCell>
        <mxCell id="LIulJuEhoRuPIGJCdWyn-2" value="+ field: type" style="text;strokeColor=none;fillColor=none;align=left;verticalAlign=top;spacingLeft=4;spacingRight=4;overflow=hidden;rotatable=0;points=[[0,0.5],[1,0.5]];portConstraint=eastwest;" vertex="1" parent="LIulJuEhoRuPIGJCdWyn-1">
          <mxGeometry y="26" width="180" height="26" as="geometry" />
        </mxCell>
        <mxCell id="LIulJuEhoRuPIGJCdWyn-3" value="" style="line;strokeWidth=1;fillColor=none;align=left;verticalAlign=middle;spacingTop=-1;spacingLeft=3;spacingRight=3;rotatable=0;labelPosition=right;points=[];portConstraint=eastwest;" vertex="1" parent="LIulJuEhoRuPIGJCdWyn-1">
          <mxGeometry y="52" width="180" height="8" as="geometry" />
        </mxCell>
        <mxCell id="LIulJuEhoRuPIGJCdWyn-4" value="+get_results(self,payload):json" style="text;strokeColor=none;fillColor=none;align=left;verticalAlign=top;spacingLeft=4;spacingRight=4;overflow=hidden;rotatable=0;points=[[0,0.5],[1,0.5]];portConstraint=eastwest;" vertex="1" parent="LIulJuEhoRuPIGJCdWyn-1">
          <mxGeometry y="60" width="180" height="30" as="geometry" />
        </mxCell>
        <mxCell id="LIulJuEhoRuPIGJCdWyn-13" value="+get_results(self,payload):json" style="text;strokeColor=none;fillColor=none;align=left;verticalAlign=top;spacingLeft=4;spacingRight=4;overflow=hidden;rotatable=0;points=[[0,0.5],[1,0.5]];portConstraint=eastwest;" vertex="1" parent="LIulJuEhoRuPIGJCdWyn-1">
          <mxGeometry y="90" width="180" height="26" as="geometry" />
        </mxCell>
        <mxCell id="LIulJuEhoRuPIGJCdWyn-10" value="BaseHTTPRequestHandler" style="html=1;fontFamily=Helvetica;" vertex="1" parent="1">
          <mxGeometry x="280" y="50" width="180" height="50" as="geometry" />
        </mxCell>
        <mxCell id="LIulJuEhoRuPIGJCdWyn-12" value="Extends" style="endArrow=block;endSize=16;endFill=0;html=1;rounded=0;fontFamily=Helvetica;edgeStyle=orthogonalEdgeStyle;entryX=0;entryY=0.5;entryDx=0;entryDy=0;" edge="1" parent="1" target="LIulJuEhoRuPIGJCdWyn-10">
          <mxGeometry width="160" relative="1" as="geometry">
            <mxPoint x="200" y="75" as="sourcePoint" />
            <mxPoint x="490" y="310" as="targetPoint" />
          </mxGeometry>
        </mxCell>
      </root>
    </mxGraphModel>
  </diagram>
</mxfile>
